<?xml version="1.0" encoding="utf-8"?>

<!DOCTYPE svg PUBLIC "-//W3C//DTD SVG 1.1//EN" "http://www.w3.org/Graphics/SVG/1.1/DTD/svg11.dtd">
<svg version="1.1" id="Layer_1" xmlns="http://www.w3.org/2000/svg" xmlns:xlink="http://www.w3.org/1999/xlink" x="0px" y="0px"
	 viewBox="0 0 1647.099 1647.099" enable-background="new 0 0 1647.099 1647.099" xml:space="preserve">
<g>
	<g>
		<g>
			<path d="M823.549,66.366c107.544,34.103,202.535,88.768,240.419,107.679l0,0c69.275,34.513,162.656,34.308,206.035-31.019l0,0
				l0.005-0.011l-7.619-5.05c-23.316,35.063-62.068,49.744-103.783,49.785l0,0c-30.76,0.011-62.896-8.101-90.566-21.889l0,0
				c-37.932-18.811-134.49-74.685-244.492-109.098c-110.002,34.413-206.56,90.287-244.492,109.098l0,0
				c-27.67,13.789-59.805,21.9-90.566,21.889l0,0c-41.715-0.041-80.467-14.723-103.783-49.785l-7.619,5.05l0.005,0.011l0,0
				c43.38,65.328,136.76,65.532,206.035,31.019l0,0C621.014,155.135,716.006,100.47,823.549,66.366z"/>
			<path d="M1580.732,823.549c-34.103,107.544-88.768,202.535-107.679,240.419l0,0c-34.513,69.275-34.309,162.656,31.019,206.035
				l0,0l0.011,0.005l5.05-7.619c-35.063-23.316-49.744-62.068-49.785-103.783l0,0c-0.011-30.76,8.101-62.896,21.889-90.566l0,0
				c18.811-37.932,74.685-134.49,109.098-244.492c-34.413-110.002-90.287-206.56-109.098-244.492l0,0
				c-13.789-27.67-21.9-59.805-21.889-90.566l0,0c0.041-41.715,14.723-80.467,49.785-103.783l-5.05-7.619l-0.011,0.005l0,0
				c-65.328,43.38-65.532,136.76-31.019,206.035l0,0C1491.964,621.014,1546.629,716.006,1580.732,823.549z"/>
			<path d="M823.549,1580.732c-107.544-34.103-202.535-88.768-240.419-107.679l0,0c-69.275-34.513-162.656-34.309-206.035,31.019
				l0,0l-0.005,0.011l7.619,5.05c23.316-35.063,62.068-49.744,103.783-49.785l0,0c30.76-0.011,62.896,8.101,90.566,21.889l0,0
				c37.932,18.811,134.49,74.685,244.492,109.098c110.002-34.413,206.56-90.287,244.492-109.098l0,0
				c27.67-13.789,59.805-21.9,90.566-21.889l0,0c41.715,0.041,80.467,14.723,103.783,49.785l7.619-5.05l-0.005-0.011l0,0
				c-43.38-65.328-136.76-65.532-206.035-31.019l0,0C1026.085,1491.964,931.093,1546.629,823.549,1580.732z"/>
			<path d="M66.366,823.549c34.103-107.544,88.768-202.535,107.679-240.419l0,0c34.513-69.275,34.308-162.656-31.019-206.035l0,0
				l-0.011-0.005l-5.05,7.619c35.063,23.316,49.744,62.068,49.785,103.783l0,0c0.011,30.76-8.101,62.896-21.889,90.566l0,0
				c-18.811,37.932-74.685,134.49-109.098,244.492c34.413,110.002,90.287,206.56,109.098,244.492l0,0
				c13.789,27.67,21.9,59.805,21.889,90.566l0,0c-0.041,41.715-14.723,80.467-49.785,103.783l5.05,7.619l0.011-0.005l0,0
				c65.328-43.38,65.532-136.76,31.019-206.035l0,0C155.135,1026.085,100.47,931.093,66.366,823.549z"/>
		</g>
		<g>
			<g>
				<g>
					<path d="M1262.414,137.966c15.97-23.686,21.475-56.23,8.672-82.947c-12.038-24.811-51.784-42.523-74.041-18.518
						c21.149-25.37,63.394-10.009,78.038,16.348c15.137,28.081,11.251,62.993-5.097,90.156L1262.414,137.966z"/>
					<path d="M137.966,384.684c-23.686-15.97-56.23-21.475-82.947-8.672c-24.811,12.038-42.523,51.784-18.518,74.04
						c-25.37-21.148-10.009-63.394,16.348-78.038c28.081-15.137,62.993-11.251,90.156,5.097L137.966,384.684z"/>
					<path d="M384.684,1509.133c-15.97,23.686-21.475,56.23-8.672,82.947c12.038,24.811,51.784,42.523,74.04,18.518
						c-21.148,25.37-63.394,10.009-78.038-16.348c-15.137-28.081-11.251-62.993,5.097-90.156L384.684,1509.133z"/>
					<path d="M1509.133,1262.414c23.686,15.97,56.23,21.475,82.947,8.672c24.811-12.038,42.523-51.784,18.518-74.041
						c25.37,21.149,10.009,63.394-16.348,78.038c-28.081,15.137-62.993,11.251-90.156-5.097L1509.133,1262.414z"/>
					<path d="M1509.133,384.684c23.686-15.97,56.23-21.475,82.947-8.672c24.811,12.038,42.523,51.784,18.518,74.04
						c25.37-21.148,10.009-63.394-16.348-78.038c-28.081-15.137-62.993-11.251-90.156,5.097L1509.133,384.684z"/>
					<path d="M384.684,137.966c-15.97-23.686-21.475-56.23-8.672-82.947c12.038-24.811,51.784-42.523,74.04-18.518
						c-21.148-25.37-63.394-10.009-78.038,16.348c-15.137,28.081-11.251,62.993,5.097,90.156L384.684,137.966z"/>
					<path d="M137.966,1262.414c-23.686,15.97-56.23,21.475-82.947,8.672c-24.811-12.038-42.523-51.784-18.518-74.041
						c-25.37,21.149-10.009,63.394,16.348,78.038c28.081,15.137,62.993,11.251,90.156-5.097L137.966,1262.414z"/>
					<path d="M1262.414,1509.133c15.97,23.686,21.475,56.23,8.672,82.947c-12.038,24.811-51.784,42.523-74.041,18.518
						c21.149,25.37,63.394,10.009,78.038-16.348c15.137-28.081,11.251-62.993-5.097-90.156L1262.414,1509.133z"/>
				</g>
			</g>
		</g>
		<g>
			<g>
				<g>
					<g>
						<path d="M823.549,87.587c12.537,1.677,26.279,4.808,41.316,9.782c70.564,28.125,219.528,116.775,292.46,116.622
							c55.032,4.615,79.71-26.055,78.158-25.362c1.337-0.457-24.283,28.192-77.94,21.707c-52.759-1.59-116.27-39.301-188.429-71.997
							C922,116.608,873.212,87.694,823.549,82.071c-49.663,5.622-98.451,34.537-145.564,56.268
							c-72.159,32.696-135.67,70.407-188.429,71.997c-53.657,6.485-79.277-22.164-77.94-21.707
							c-1.552-0.693,23.125,29.978,78.158,25.362c72.931,0.152,221.896-88.498,292.46-116.622
							C797.27,92.395,811.012,89.264,823.549,87.587z"/>
						<path d="M1559.512,823.549c-1.677,12.537-4.808,26.279-9.782,41.316c-28.125,70.564-116.775,219.528-116.622,292.46
							c-4.615,55.032,26.055,79.71,25.362,78.158c0.457,1.337-28.192-24.283-21.707-77.94c1.59-52.759,39.301-116.27,71.997-188.429
							c21.731-47.113,50.645-95.901,56.268-145.564c-5.622-49.663-34.537-98.451-56.268-145.564
							c-32.696-72.159-70.407-135.67-71.997-188.429c-6.485-53.657,22.164-79.277,21.707-77.94
							c0.693-1.552-29.978,23.125-25.362,78.158c-0.152,72.931,88.498,221.896,116.622,292.46
							C1554.703,797.27,1557.834,811.012,1559.512,823.549z"/>
						<path d="M823.549,1559.512c-12.537-1.677-26.279-4.808-41.316-9.782c-70.564-28.125-219.528-116.775-292.46-116.622
							c-55.032-4.615-79.71,26.055-78.158,25.362c-1.337,0.457,24.283-28.192,77.94-21.707
							c52.759,1.59,116.27,39.301,188.429,71.997c47.113,21.731,95.901,50.645,145.564,56.268
							c49.663-5.622,98.451-34.537,145.564-56.268c72.159-32.696,135.67-70.407,188.429-71.997
							c53.657-6.485,79.277,22.164,77.94,21.707c1.552,0.693-23.125-29.978-78.158-25.362
							c-72.931-0.152-221.896,88.498-292.46,116.622C849.828,1554.703,836.086,1557.834,823.549,1559.512z"/>
						<path d="M87.587,823.549c1.677-12.537,4.808-26.279,9.782-41.316c28.125-70.564,116.775-219.528,116.622-292.46
							c4.615-55.032-26.055-79.71-25.362-78.158c-0.457-1.337,28.192,24.283,21.707,77.94
							c-1.59,52.759-39.301,116.27-71.997,188.429c-21.731,47.113-50.645,95.901-56.268,145.564
							c5.622,49.663,34.537,98.451,56.268,145.564c32.696,72.159,70.407,135.67,71.997,188.429
							c6.485,53.657-22.164,79.277-21.707,77.94c-0.693,1.552,29.978-23.125,25.362-78.158
							c0.152-72.931-88.498-221.896-116.622-292.46C92.395,849.828,89.264,836.086,87.587,823.549z"/>
					</g>
				</g>
			</g>
		</g>
		<g>
			<g>
				<g>
					<path d="M926.871,185.739c49.815,15.324,68.995,93.294,22.379,123.78c-21.018,13.817-55.579,11.236-68.374-12.939
						c-14.979-25.175,5.276-60.292,34.27-49.663c-12.533-4.919-27.986,0.076-35.234,11.68
						c-22.346,40.341,28.104,80.721,71.122,53.854c50.39-31.647,32.201-114.705-21.739-133.127L926.871,185.739z"/>
					<path d="M185.739,720.228c15.324-49.815,93.294-68.995,123.78-22.38c13.817,21.018,11.236,55.58-12.939,68.374
						c-25.175,14.979-60.292-5.276-49.663-34.27c-4.919,12.533,0.076,27.986,11.68,35.234
						c40.341,22.346,80.721-28.103,53.854-71.122c-31.647-50.39-114.705-32.201-133.127,21.739L185.739,720.228z"/>
					<path d="M720.228,1461.36c-49.815-15.324-68.995-93.294-22.38-123.78c21.018-13.817,55.58-11.236,68.374,12.939
						c14.979,25.175-5.276,60.292-34.27,49.663c12.533,4.919,27.986-0.076,35.234-11.68c22.346-40.34-28.103-80.721-71.122-53.854
						c-50.39,31.647-32.201,114.705,21.739,133.127L720.228,1461.36z"/>
					<path d="M1461.36,926.871c-15.324,49.815-93.294,68.995-123.78,22.379c-13.817-21.018-11.236-55.579,12.939-68.374
						c25.175-14.979,60.292,5.276,49.663,34.27c4.919-12.533-0.076-27.986-11.68-35.234c-40.34-22.346-80.721,28.104-53.854,71.122
						c31.647,50.39,114.705,32.201,133.127-21.739L1461.36,926.871z"/>
					<path d="M1461.36,720.228c-15.324-49.815-93.294-68.995-123.78-22.38c-13.817,21.018-11.236,55.58,12.939,68.374
						c25.175,14.979,60.292-5.276,49.663-34.27c4.919,12.533-0.076,27.986-11.68,35.234c-40.34,22.346-80.721-28.103-53.854-71.122
						c31.647-50.39,114.705-32.201,133.127,21.739L1461.36,720.228z"/>
					<path d="M720.228,185.739c-49.815,15.324-68.995,93.294-22.38,123.78c21.018,13.817,55.58,11.236,68.374-12.939
						c14.979-25.175-5.276-60.292-34.27-49.663c12.533-4.919,27.986,0.076,35.234,11.68c22.346,40.341-28.103,80.721-71.122,53.854
						c-50.39-31.647-32.201-114.705,21.739-133.127L720.228,185.739z"/>
					<path d="M185.739,926.871c15.324,49.815,93.294,68.995,123.78,22.379c13.817-21.018,11.236-55.579-12.939-68.374
						c-25.175-14.979-60.292,5.276-49.663,34.27c-4.919-12.533,0.076-27.986,11.68-35.234
						c40.341-22.346,80.721,28.104,53.854,71.122c-31.647,50.39-114.705,32.201-133.127-21.739L185.739,926.871z"/>
					<path d="M926.871,1461.36c49.815-15.324,68.995-93.294,22.379-123.78c-21.018-13.817-55.579-11.236-68.374,12.939
						c-14.979,25.175,5.276,60.292,34.27,49.663c-12.533,4.919-27.986-0.076-35.234-11.68
						c-22.346-40.34,28.104-80.721,71.122-53.854c50.39,31.647,32.201,114.705-21.739,133.127L926.871,1461.36z"/>
				</g>
			</g>
		</g>
		<g>
			<path d="M859.125,225.036c3.923-1.819,0.467-11.194-8.163-9.378c-11.61,2.367-12.655,20.755,1.122,26.656
				c14.068,5.842,30.315-7.711,25.728-25.806c-5.76-22.234-36.054-26.733-48.282-8.67c10.584-11.073,30.287-12.623,40.53,0.272
				c14.845,18.725-7.83,38.885-18.769,26.052c-5.64-6.778,0.962-14.202,4.942-10.833
				C857.647,224.478,857.919,225.523,859.125,225.036z"/>
			<path d="M225.036,787.973c-1.819-3.923-11.194-0.467-9.378,8.163c2.367,11.61,20.755,12.655,26.656-1.122
				c5.842-14.069-7.711-30.315-25.806-25.728c-22.234,5.76-26.733,36.054-8.67,48.282c-11.073-10.584-12.623-30.287,0.272-40.53
				c18.725-14.845,38.885,7.83,26.052,18.769c-6.778,5.64-14.202-0.962-10.833-4.942
				C224.478,789.451,225.523,789.18,225.036,787.973z"/>
			<path d="M787.973,1422.063c-3.923,1.819-0.467,11.193,8.163,9.378c11.61-2.367,12.655-20.755-1.122-26.656
				c-14.069-5.842-30.315,7.711-25.728,25.806c5.76,22.234,36.054,26.733,48.282,8.67c-10.584,11.073-30.287,12.623-40.53-0.272
				c-14.845-18.725,7.83-38.885,18.769-26.052c5.64,6.778-0.962,14.202-4.942,10.833
				C789.451,1422.621,789.18,1421.576,787.973,1422.063z"/>
			<path d="M1422.063,859.125c1.819,3.923,11.193,0.467,9.378-8.163c-2.367-11.61-20.755-12.655-26.656,1.122
				c-5.842,14.068,7.711,30.315,25.806,25.728c22.234-5.76,26.733-36.054,8.67-48.282c11.073,10.584,12.623,30.287-0.272,40.53
				c-18.725,14.845-38.885-7.83-26.052-18.769c6.778-5.64,14.202,0.962,10.833,4.942
				C1422.621,857.647,1421.576,857.919,1422.063,859.125z"/>
			<path d="M1422.063,787.973c1.819-3.923,11.193-0.467,9.378,8.163c-2.367,11.61-20.755,12.655-26.656-1.122
				c-5.842-14.069,7.711-30.315,25.806-25.728c22.234,5.76,26.733,36.054,8.67,48.282c11.073-10.584,12.623-30.287-0.272-40.53
				c-18.725-14.845-38.885,7.83-26.052,18.769c6.778,5.64,14.202-0.962,10.833-4.942
				C1422.621,789.451,1421.576,789.18,1422.063,787.973z"/>
			<path d="M787.973,225.036c-3.923-1.819-0.467-11.194,8.163-9.378c11.61,2.367,12.655,20.755-1.122,26.656
				c-14.069,5.842-30.315-7.711-25.728-25.806c5.76-22.234,36.054-26.733,48.282-8.67c-10.584-11.073-30.287-12.623-40.53,0.272
				c-14.845,18.725,7.83,38.885,18.769,26.052c5.64-6.778-0.962-14.202-4.942-10.833
				C789.451,224.478,789.18,225.523,787.973,225.036z"/>
			<path d="M225.036,859.125c-1.819,3.923-11.194,0.467-9.378-8.163c2.367-11.61,20.755-12.655,26.656,1.122
				c5.842,14.068-7.711,30.315-25.806,25.728c-22.234-5.76-26.733-36.054-8.67-48.282c-11.073,10.584-12.623,30.287,0.272,40.53
				c18.725,14.845,38.885-7.83,26.052-18.769c-6.778-5.64-14.202,0.962-10.833,4.942
				C224.478,857.647,225.523,857.919,225.036,859.125z"/>
			<path d="M859.125,1422.063c3.923,1.819,0.467,11.193-8.163,9.378c-11.61-2.367-12.655-20.755,1.122-26.656
				c14.068-5.842,30.315,7.711,25.728,25.806c-5.76,22.234-36.054,26.733-48.282,8.67c10.584,11.073,30.287,12.623,40.53-0.272
				c14.845-18.725-7.83-38.885-18.769-26.052c-5.64,6.778,0.962,14.202,4.942,10.833
				C857.647,1422.621,857.919,1421.576,859.125,1422.063z"/>
		</g>
		<g>
			<path d="M918.852,280.046c-0.479-0.32-0.226-0.952-0.035-1.278c7.206-22.905-31.297-20.291-24.68,3.947
				c3.875,14.162,25.068,19.798,37.728,5.361c13.204-14.845,5.179-39.027-16.201-43.871c-22.091-5.013-38.076,11.169-39.874,26.34
				c0.185-0.37,0.934-1.561,1.056-1.945c8.837-26.151,48.881-23.792,50.738-0.777c0.349,5.37-2.331,11.974-8.087,12.569
				C919.209,280.34,918.991,280.227,918.852,280.046z"/>
			<path d="M280.046,728.247c-0.32,0.479-0.952,0.226-1.278,0.035c-22.905-7.207-20.291,31.297,3.947,24.68
				c14.162-3.875,19.798-25.068,5.361-37.728c-14.845-13.204-39.027-5.179-43.871,16.201c-5.013,22.091,11.169,38.076,26.34,39.874
				c-0.37-0.185-1.561-0.934-1.945-1.056c-26.151-8.837-23.792-48.881-0.777-50.738c5.37-0.349,11.974,2.331,12.569,8.087
				C280.34,727.89,280.227,728.108,280.046,728.247z"/>
			<path d="M728.247,1367.052c0.479,0.32,0.226,0.952,0.035,1.278c-7.207,22.905,31.297,20.291,24.68-3.947
				c-3.875-14.161-25.068-19.798-37.728-5.361c-13.204,14.845-5.179,39.027,16.201,43.871c22.091,5.013,38.076-11.169,39.874-26.34
				c-0.185,0.37-0.934,1.561-1.056,1.945c-8.837,26.151-48.881,23.792-50.738,0.777c-0.349-5.37,2.331-11.974,8.087-12.569
				C727.89,1366.759,728.108,1366.871,728.247,1367.052z"/>
			<path d="M1367.052,918.852c0.32-0.479,0.952-0.226,1.278-0.035c22.905,7.206,20.291-31.297-3.947-24.68
				c-14.161,3.875-19.798,25.068-5.361,37.728c14.845,13.204,39.027,5.179,43.871-16.201c5.013-22.091-11.169-38.076-26.34-39.874
				c0.37,0.185,1.561,0.934,1.945,1.056c26.151,8.837,23.792,48.881,0.777,50.738c-5.37,0.349-11.974-2.331-12.569-8.087
				C1366.759,919.209,1366.871,918.991,1367.052,918.852z"/>
			<path d="M1367.052,728.247c0.32,0.479,0.952,0.226,1.278,0.035c22.905-7.207,20.291,31.297-3.947,24.68
				c-14.161-3.875-19.798-25.068-5.361-37.728c14.845-13.204,39.027-5.179,43.871,16.201c5.013,22.091-11.169,38.076-26.34,39.874
				c0.37-0.185,1.561-0.934,1.945-1.056c26.151-8.837,23.792-48.881,0.777-50.738c-5.37-0.349-11.974,2.331-12.569,8.087
				C1366.759,727.89,1366.871,728.108,1367.052,728.247z"/>
			<path d="M728.247,280.046c0.479-0.32,0.226-0.952,0.035-1.278c-7.207-22.905,31.297-20.291,24.68,3.947
				c-3.875,14.162-25.068,19.798-37.728,5.361c-13.204-14.845-5.179-39.027,16.201-43.871c22.091-5.013,38.076,11.169,39.874,26.34
				c-0.185-0.37-0.934-1.561-1.056-1.945c-8.837-26.151-48.881-23.792-50.738-0.777c-0.349,5.37,2.331,11.974,8.087,12.569
				C727.89,280.34,728.108,280.227,728.247,280.046z"/>
			<path d="M280.046,918.852c-0.32-0.479-0.952-0.226-1.278-0.035c-22.905,7.206-20.291-31.297,3.947-24.68
				c14.162,3.875,19.798,25.068,5.361,37.728c-14.845,13.204-39.027,5.179-43.871-16.201c-5.013-22.091,11.169-38.076,26.34-39.874
				c-0.37,0.185-1.561,0.934-1.945,1.056c-26.151,8.837-23.792,48.881-0.777,50.738c5.37,0.349,11.974-2.331,12.569-8.087
				C280.34,919.209,280.227,918.991,280.046,918.852z"/>
			<path d="M918.852,1367.052c-0.479,0.32-0.226,0.952-0.035,1.278c7.206,22.905-31.297,20.291-24.68-3.947
				c3.875-14.161,25.068-19.798,37.728-5.361c13.204,14.845,5.179,39.027-16.201,43.871c-22.091,5.013-38.076-11.169-39.874-26.34
				c0.185,0.37,0.934,1.561,1.056,1.945c8.837,26.151,48.881,23.792,50.738,0.777c0.349-5.37-2.331-11.974-8.087-12.569
				C919.209,1366.759,918.991,1366.871,918.852,1367.052z"/>
		</g>
		<g>
			<path d="M1215.371,59.83c-3.667,2.231-9.606-5.776-3.311-11.996c8.461-8.434,24.28,1.013,21.604,15.651
				c-2.904,14.995-23.17,20.984-35.719,7.214c-16.159-17.992-1.603-46.764,24.359-45.842c-22.464,1.614-31.809,20.196-27.077,34.74
				c7.417,22.73,36.73,14.936,32.084-1.268c-2.555-8.461-12.365-7.023-11.763-1.863C1215.709,58.222,1216.451,59.071,1215.371,59.83
				z"/>
			<path d="M59.83,431.727c2.231,3.667-5.776,9.606-11.996,3.311c-8.434-8.461,1.013-24.28,15.651-21.604
				c14.995,2.904,20.984,23.17,7.214,35.719c-17.992,16.159-46.764,1.603-45.842-24.359c1.614,22.464,20.196,31.809,34.74,27.077
				c22.73-7.417,14.936-36.73-1.268-32.084c-8.461,2.555-7.023,12.365-1.863,11.763C58.222,431.39,59.071,430.647,59.83,431.727z"/>
			<path d="M431.727,1587.268c3.667-2.232,9.606,5.776,3.311,11.996c-8.461,8.434-24.28-1.013-21.604-15.651
				c2.904-14.995,23.17-20.984,35.719-7.214c16.159,17.992,1.603,46.764-24.359,45.842c22.464-1.614,31.809-20.196,27.077-34.74
				c-7.417-22.73-36.73-14.936-32.084,1.268c2.555,8.461,12.365,7.023,11.763,1.862
				C431.39,1588.876,430.647,1588.028,431.727,1587.268z"/>
			<path d="M1587.268,1215.371c-2.232-3.667,5.776-9.606,11.996-3.311c8.434,8.461-1.013,24.28-15.651,21.604
				c-14.995-2.904-20.984-23.17-7.214-35.719c17.992-16.159,46.764-1.603,45.842,24.359c-1.614-22.464-20.196-31.809-34.74-27.077
				c-22.73,7.417-14.936,36.73,1.268,32.084c8.461-2.555,7.023-12.365,1.862-11.763
				C1588.876,1215.709,1588.028,1216.451,1587.268,1215.371z"/>
			<path d="M1587.268,431.727c-2.232,3.667,5.776,9.606,11.996,3.311c8.434-8.461-1.013-24.28-15.651-21.604
				c-14.995,2.904-20.984,23.17-7.214,35.719c17.992,16.159,46.764,1.603,45.842-24.359c-1.614,22.464-20.196,31.809-34.74,27.077
				c-22.73-7.417-14.936-36.73,1.268-32.084c8.461,2.555,7.023,12.365,1.862,11.763
				C1588.876,431.39,1588.028,430.647,1587.268,431.727z"/>
			<path d="M431.727,59.83c3.667,2.231,9.606-5.776,3.311-11.996c-8.461-8.434-24.28,1.013-21.604,15.651
				c2.904,14.995,23.17,20.984,35.719,7.214c16.159-17.992,1.603-46.764-24.359-45.842c22.464,1.614,31.809,20.196,27.077,34.74
				c-7.417,22.73-36.73,14.936-32.084-1.268c2.555-8.461,12.365-7.023,11.763-1.863C431.39,58.222,430.647,59.071,431.727,59.83z"/>
			<path d="M59.83,1215.371c2.231-3.667-5.776-9.606-11.996-3.311c-8.434,8.461,1.013,24.28,15.651,21.604
				c14.995-2.904,20.984-23.17,7.214-35.719c-17.992-16.159-46.764-1.603-45.842,24.359c1.614-22.464,20.196-31.809,34.74-27.077
				c22.73,7.417,14.936,36.73-1.268,32.084c-8.461-2.555-7.023-12.365-1.863-11.763C58.222,1215.709,59.071,1216.451,59.83,1215.371
				z"/>
			<path d="M1215.371,1587.268c-3.667-2.232-9.606,5.776-3.311,11.996c8.461,8.434,24.28-1.013,21.604-15.651
				c-2.904-14.995-23.17-20.984-35.719-7.214c-16.159,17.992-1.603,46.764,24.359,45.842c-22.464-1.614-31.809-20.196-27.077-34.74
				c7.417-22.73,36.73-14.936,32.084,1.268c-2.555,8.461-12.365,7.023-11.763,1.862
				C1215.709,1588.876,1216.451,1588.028,1215.371,1587.268z"/>
		</g>
		<g>
			<path d="M823.549,213.18c29.948-26.825,64-42.169,103.327-27.441l0,0l2.402-6.4c-11.275-4.258-22.241-6.208-32.808-6.208l0,0
				c-27.055,0.067-51.172,12.62-72.921,31.013c-21.749-18.393-45.866-30.946-72.921-31.013l0,0c-10.567,0-21.533,1.95-32.808,6.208
				l2.401,6.4l0,0C759.55,171.011,793.601,186.355,823.549,213.18z"/>
			<path d="M1433.919,823.549c26.825,29.948,42.169,64,27.441,103.327l0,0l6.4,2.402c4.258-11.275,6.208-22.241,6.208-32.808l0,0
				c-0.067-27.055-12.62-51.172-31.013-72.921c18.393-21.749,30.946-45.866,31.013-72.921l0,0c0-10.567-1.95-21.533-6.208-32.808
				l-6.4,2.401l0,0C1476.087,759.55,1460.744,793.601,1433.919,823.549z"/>
			<path d="M823.549,1433.919c-29.948,26.825-64,42.169-103.327,27.441l0,0l-2.401,6.4c11.275,4.258,22.241,6.208,32.808,6.208l0,0
				c27.055-0.067,51.172-12.62,72.921-31.013c21.749,18.393,45.866,30.946,72.921,31.013l0,0c10.567,0,21.533-1.95,32.808-6.208
				l-2.402-6.4l0,0C887.549,1476.087,853.498,1460.744,823.549,1433.919z"/>
			<path d="M213.18,823.549c-26.825-29.948-42.169-64-27.441-103.327l0,0l-6.4-2.401c-4.258,11.275-6.208,22.241-6.208,32.808l0,0
				c0.067,27.055,12.62,51.172,31.013,72.921c-18.393,21.749-30.946,45.866-31.013,72.921l0,0c0,10.567,1.95,21.533,6.208,32.808
				l6.4-2.402l0,0C171.011,887.549,186.355,853.498,213.18,823.549z"/>
		</g>
	</g>
</g>
</svg>
