<svg id="Layer_1" data-name="Layer 1" xmlns="http://www.w3.org/2000/svg" width="243.3" height="242.31" viewBox="0 0 243.3 242.31"><g id="sun"><path d="M132.58,140c1.52-1.65,13.45-15,10-29.72C137.68,89.7,106,79.06,90.72,90.34c-14.54,10.78-12,40.07,2.2,54.14,18.78,18.62,59,11.61,70.17-12.08,10-21.12-6.39-48.44-26.45-59-27.13-14.25-68-1.49-78,29.06-9.2,28.14,12.68,57.81,37.51,67.48,32.44,12.64,74.79-6.94,84-43,8.9-34.88-16.25-73.6-56.1-79.22" fill="none" stroke="#000" stroke-miterlimit="10" stroke-width="2"/><g id="outline"><path d="M187.67,140.81a81.78,81.78,0,0,1-31.34,40C184,170.93,208.2,203,208.2,203c15.21-36.64-17.32-67.85-18.34-68.82.07-.42.13-.84.2-1.26A37.18,37.18,0,0,0,187.67,140.81Z" fill="none" stroke="#000" stroke-miterlimit="10" stroke-width="2"/><path d="M241.67,110.13c-14.58-32.21-51.93-33.77-60.87-33.67L178,72.18c-.93-1.27-1.92-2.51-2.93-3.74a37.4,37.4,0,0,0,5.25,8c-.93,0-1.44,0-1.44,0a82,82,0,0,1,11.2,56.36C201.75,105.93,241.67,110.13,241.67,110.13Z" fill="none" stroke="#000" stroke-miterlimit="10" stroke-width="2"/><path d="M94.35,186.66C119.5,201.85,110,240.85,110,240.85c36.07-10.8,41.16-51.83,41.67-57.17l.64-.34c1.37-.79,2.7-1.65,4-2.53a36.55,36.55,0,0,0-6.4,3A81.89,81.89,0,0,1,94.35,186.66Z" fill="none" stroke="#000" stroke-miterlimit="10" stroke-width="2"/><path d="M47.84,142.58c4.58,29-31.37,46.88-31.37,46.88,33.72,22.08,71.05-5.31,71.05-5.31l-.1-.05,2.42,1.05q2.23.82,4.51,1.51a38.28,38.28,0,0,0-10.06-4.19A81.82,81.82,0,0,1,47.84,142.58Z" fill="none" stroke="#000" stroke-miterlimit="10" stroke-width="2"/><path d="M46.09,138.16c.53,1.49,1.13,3,1.75,4.42a39.35,39.35,0,0,0-4-11.79Z" fill="none" stroke="#000" stroke-miterlimit="10" stroke-width="2"/><path d="M43.36,130.79a82,82,0,0,1,14-55.73C35.28,94.4,1,73.5,1,73.5.29,113.79,43.36,130.79,43.36,130.79Z" fill="none" stroke="#000" stroke-miterlimit="10" stroke-width="2"/><path d="M64.1,67.27A81.83,81.83,0,0,1,113,47.16C84.16,41.71,79.44,1.85,79.44,1.85,47.31,26.17,60.53,70.54,60.53,70.54c.46-.45.94-.87,1.41-1.31l-1.74,2c-1,1.24-1.9,2.52-2.81,3.83A38.28,38.28,0,0,0,64.1,67.27Z" fill="none" stroke="#000" stroke-miterlimit="10" stroke-width="2"/><path d="M125.47,47.4,117.78,47c-1.58,0-3.17.06-4.75.15A39.07,39.07,0,0,0,125.47,47.4Z" fill="none" stroke="#000" stroke-miterlimit="10" stroke-width="2"/><path d="M191.7,14.56C153.08,3,125.14,40,125.14,40a82.11,82.11,0,0,1,49.91,28.49C162.36,42,191.7,14.56,191.7,14.56Z" fill="none" stroke="#000" stroke-miterlimit="10" stroke-width="2"/></g></g></svg>