<svg id="Layer_1" data-name="Layer 1" xmlns="http://www.w3.org/2000/svg" width="1600" height="1600" viewBox="0 0 1600 1600"><path d="M800,42.82c107.54,34.1,202.53,88.76,240.42,107.67h0c69.27,34.52,162.65,34.31,206-31h0v0l-7.62-5c-23.32,35.07-62.07,49.75-103.78,49.79h0c-30.76,0-62.9-8.1-90.57-21.89h0C1006.56,123.5,910,67.63,800,33.21,690,67.63,593.44,123.5,555.51,142.31h0c-27.67,13.79-59.81,21.9-90.57,21.89h0c-41.72,0-80.47-14.72-103.78-49.79l-7.62,5v0h0c43.38,65.32,136.76,65.53,206,31h0C597.46,131.58,692.46,76.92,800,42.82Z"/><path d="M1557.18,800c-34.1,107.54-88.77,202.53-107.68,240.42h0c-34.51,69.27-34.31,162.65,31,206h0l5-7.62c-35.06-23.32-49.74-62.07-49.78-103.78h0c0-30.76,8.1-62.9,21.89-90.57h0c18.81-37.93,74.68-134.49,109.1-244.49-34.42-110-90.29-206.56-109.1-244.49h0c-13.79-27.67-21.9-59.81-21.89-90.57h0c0-41.72,14.72-80.47,49.78-103.78l-5-7.62h0c-65.33,43.38-65.53,136.76-31,206h0C1468.41,597.46,1523.08,692.46,1557.18,800Z"/><path d="M800,1557.18c-107.55-34.1-202.54-88.77-240.42-107.68h0c-69.28-34.51-162.66-34.31-206,31h0l7.62,5c23.31-35.06,62.07-49.74,103.78-49.78h0c30.76,0,62.9,8.1,90.57,21.89h0C593.44,1476.5,690,1532.37,800,1566.79c110-34.42,206.56-90.29,244.49-109.1h0c27.67-13.79,59.81-21.9,90.57-21.89h0c41.71,0,80.47,14.72,103.78,49.78l7.62-5h0c-43.38-65.33-136.76-65.53-206-31h0C1002.53,1468.41,907.54,1523.08,800,1557.18Z"/><path d="M42.82,800c34.1-107.55,88.76-202.54,107.67-240.42h0c34.52-69.28,34.31-162.66-31-206h0l-5,7.62c35.07,23.31,49.75,62.07,49.79,103.78h0c0,30.76-8.1,62.9-21.89,90.57h0C123.5,593.44,67.63,690,33.21,800c34.42,110,90.29,206.56,109.1,244.49h0c13.79,27.67,21.9,59.81,21.89,90.57h0c0,41.71-14.72,80.47-49.79,103.78l5,7.62h0c65.32-43.38,65.53-136.76,31-206h0C131.58,1002.53,76.92,907.54,42.82,800Z"/><path d="M1238.86,114.42c16-23.69,21.48-56.23,8.68-82.95-12-24.81-51.79-42.52-74-18.52,21.15-25.37,63.4-10,78,16.35,15.14,28.08,11.25,63-5.09,90.15Z"/><path d="M114.42,361.13c-23.69-16-56.23-21.47-82.95-8.67C6.66,364.5-11,404.25,13,426.5c-25.37-21.15-10-63.39,16.35-78,28.08-15.13,63-11.25,90.15,5.1Z"/><path d="M361.13,1485.58c-16,23.69-21.47,56.23-8.67,83,12,24.81,51.79,42.52,74,18.52-21.15,25.37-63.39,10-78-16.35-15.13-28.08-11.25-63,5.1-90.16Z"/><path d="M1485.58,1238.86c23.69,16,56.23,21.48,83,8.68,24.81-12,42.52-51.79,18.52-74,25.37,21.15,10,63.4-16.35,78-28.08,15.14-63,11.25-90.16-5.09Z"/><path d="M1485.58,361.13c23.69-16,56.23-21.47,83-8.67,24.81,12,42.52,51.79,18.52,74,25.37-21.15,10-63.39-16.35-78-28.08-15.13-63-11.25-90.16,5.1Z"/><path d="M361.13,114.42c-16-23.69-21.47-56.23-8.67-82.95C364.5,6.66,404.25-11,426.5,13c-21.15-25.37-63.39-10-78,16.35-15.13,28.08-11.25,63,5.1,90.15Z"/><path d="M114.42,1238.86c-23.69,16-56.23,21.48-82.95,8.68-24.81-12-42.52-51.79-18.52-74-25.37,21.15-10,63.4,16.35,78,28.08,15.14,63,11.25,90.15-5.09Z"/><path d="M1238.86,1485.58c16,23.69,21.48,56.23,8.68,83-12,24.81-51.79,42.52-74,18.52,21.15,25.37,63.4,10,78-16.35,15.14-28.08,11.25-63-5.09-90.16Z"/><path d="M800,64a226.7,226.7,0,0,1,41.31,9.78c70.57,28.12,219.53,116.77,292.46,116.62,55,4.62,79.71-26.05,78.16-25.36,1.34-.46-24.28,28.19-77.94,21.71-52.76-1.59-116.27-39.31-188.43-72C898.45,93.06,849.66,64.14,800,58.52c-49.66,5.62-98.45,34.54-145.57,56.27-72.15,32.69-135.67,70.41-188.42,72-53.66,6.48-79.28-22.17-77.94-21.71-1.56-.69,23.12,30,78.15,25.36,72.93.15,221.9-88.5,292.46-116.62A227,227,0,0,1,800,64Z"/><path d="M1536,800a228.37,228.37,0,0,1-9.78,41.31c-28.13,70.57-116.78,219.53-116.62,292.46-4.62,55,26,79.71,25.36,78.16.46,1.34-28.19-24.28-21.71-77.94,1.59-52.76,39.3-116.27,72-188.43,21.73-47.11,50.64-95.9,56.27-145.56-5.62-49.66-34.54-98.45-56.27-145.56-32.7-72.16-70.41-135.67-72-188.43-6.48-53.66,22.17-79.28,21.71-77.94.69-1.56-30,23.12-25.36,78.15-.15,72.94,88.5,221.9,116.62,292.46A228.66,228.66,0,0,1,1536,800Z"/><path d="M800,1536a228.66,228.66,0,0,1-41.32-9.78c-70.56-28.13-219.53-116.78-292.46-116.62-55-4.62-79.71,26-78.15,25.36-1.34.46,24.28-28.19,77.94-21.71,52.75,1.59,116.27,39.3,188.42,72,47.12,21.73,95.91,50.64,145.57,56.27,49.66-5.62,98.45-34.54,145.56-56.27,72.16-32.7,135.67-70.41,188.43-72,53.66-6.48,79.28,22.17,77.94,21.71,1.55.69-23.12-30-78.16-25.36-72.93-.15-221.89,88.5-292.46,116.62A228.37,228.37,0,0,1,800,1536Z"/><path d="M64,800a227,227,0,0,1,9.78-41.32c28.12-70.56,116.77-219.53,116.62-292.46,4.62-55-26.05-79.71-25.36-78.15-.46-1.34,28.19,24.28,21.71,77.94-1.59,52.75-39.31,116.27-72,188.42C93.06,701.55,64.14,750.34,58.52,800c5.62,49.66,34.54,98.45,56.27,145.56,32.69,72.16,70.41,135.67,72,188.43,6.48,53.66-22.17,79.28-21.71,77.94-.69,1.55,30-23.12,25.36-78.16.15-72.93-88.5-221.89-116.62-292.46A226.7,226.7,0,0,1,64,800Z"/><path d="M903.32,162.19c49.82,15.32,69,93.29,22.38,123.78-21,13.82-55.58,11.23-68.37-12.94-15-25.18,5.27-60.29,34.27-49.66a29.73,29.73,0,0,0-35.24,11.68c-22.34,40.34,28.11,80.72,71.12,53.85,50.39-31.65,32.2-114.7-21.74-133.13Z"/><path d="M162.19,696.68c15.32-49.82,93.29-69,123.78-22.38,13.82,21,11.23,55.58-12.94,68.37-25.18,15-60.29-5.27-49.66-34.27a29.73,29.73,0,0,0,11.68,35.24c40.34,22.34,80.72-28.11,53.85-71.13-31.65-50.39-114.7-32.2-133.13,21.74Z"/><path d="M696.68,1437.81c-49.82-15.32-69-93.29-22.38-123.78,21-13.82,55.58-11.24,68.37,12.94,15,25.17-5.27,60.29-34.27,49.66A29.73,29.73,0,0,0,743.64,1365c22.34-40.34-28.11-80.72-71.13-53.85-50.39,31.64-32.2,114.7,21.74,133.12Z"/><path d="M1437.81,903.32c-15.32,49.82-93.29,69-123.78,22.38-13.82-21-11.24-55.58,12.94-68.37,25.17-15,60.29,5.27,49.66,34.27A29.73,29.73,0,0,0,1365,856.36c-40.34-22.34-80.72,28.11-53.85,71.12,31.64,50.39,114.7,32.2,133.12-21.74Z"/><path d="M1437.81,696.68c-15.32-49.82-93.29-69-123.78-22.38-13.82,21-11.24,55.58,12.94,68.37,25.17,15,60.29-5.27,49.66-34.27A29.73,29.73,0,0,1,1365,743.64c-40.34,22.34-80.72-28.11-53.85-71.13,31.64-50.39,114.7-32.2,133.12,21.74Z"/><path d="M696.68,162.19c-49.82,15.32-69,93.29-22.38,123.78,21,13.82,55.58,11.23,68.37-12.94,15-25.18-5.27-60.29-34.27-49.66a29.73,29.73,0,0,1,35.24,11.68c22.34,40.34-28.11,80.72-71.13,53.85-50.39-31.65-32.2-114.7,21.74-133.13Z"/><path d="M162.19,903.32c15.32,49.82,93.29,69,123.78,22.38,13.82-21,11.23-55.58-12.94-68.37-25.18-15-60.29,5.27-49.66,34.27a29.73,29.73,0,0,1,11.68-35.24c40.34-22.34,80.72,28.11,53.85,71.12-31.65,50.39-114.7,32.2-133.13-21.74Z"/><path d="M903.32,1437.81c49.82-15.32,69-93.29,22.38-123.78-21-13.82-55.58-11.24-68.37,12.94-15,25.17,5.27,60.29,34.27,49.66A29.73,29.73,0,0,1,856.36,1365c-22.34-40.34,28.11-80.72,71.12-53.85,50.39,31.64,32.2,114.7-21.74,133.12Z"/><path d="M835.57,201.49c3.93-1.82.47-11.2-8.16-9.38-11.61,2.36-12.65,20.75,1.12,26.65,14.07,5.85,30.32-7.71,25.73-25.8-5.76-22.24-36-26.74-48.28-8.67,10.58-11.08,30.29-12.63,40.53.27,14.84,18.72-7.83,38.88-18.77,26.05-5.64-6.78,1-14.2,4.94-10.83C834.1,200.93,834.37,202,835.57,201.49Z"/><path d="M201.49,764.42c-1.82-3.92-11.2-.46-9.38,8.17,2.36,11.61,20.75,12.65,26.65-1.13,5.85-14.06-7.71-30.31-25.8-25.72-22.24,5.76-26.74,36-8.67,48.28-11.08-10.59-12.63-30.29.27-40.53,18.72-14.85,38.88,7.83,26.05,18.77-6.78,5.64-14.2-1-10.83-5C200.93,765.9,202,765.63,201.49,764.42Z"/><path d="M764.42,1398.51c-3.92,1.82-.46,11.2,8.17,9.38,11.61-2.37,12.65-20.75-1.13-26.66-14.06-5.84-30.31,7.72-25.72,25.81,5.76,22.24,36,26.73,48.28,8.67-10.59,11.07-30.29,12.62-40.53-.27-14.85-18.73,7.83-38.89,18.77-26,5.64,6.78-1,14.2-5,10.83C765.9,1399.07,765.63,1398,764.42,1398.51Z"/><path d="M1398.51,835.57c1.82,3.93,11.2.47,9.38-8.16-2.37-11.61-20.75-12.65-26.66,1.12-5.84,14.07,7.72,30.32,25.81,25.73,22.24-5.76,26.73-36,8.67-48.28,11.07,10.58,12.62,30.29-.27,40.53-18.73,14.84-38.89-7.83-26-18.77,6.78-5.64,14.2,1,10.83,4.94C1399.07,834.1,1398,834.37,1398.51,835.57Z"/><path d="M1398.51,764.42c1.82-3.92,11.2-.46,9.38,8.17-2.37,11.61-20.75,12.65-26.66-1.13-5.84-14.06,7.72-30.31,25.81-25.72,22.24,5.76,26.73,36,8.67,48.28,11.07-10.59,12.62-30.29-.27-40.53-18.73-14.85-38.89,7.83-26,18.77,6.78,5.64,14.2-1,10.83-5C1399.07,765.9,1398,765.63,1398.51,764.42Z"/><path d="M764.42,201.49c-3.92-1.82-.46-11.2,8.17-9.38,11.61,2.36,12.65,20.75-1.13,26.65-14.06,5.85-30.31-7.71-25.72-25.8,5.76-22.24,36-26.74,48.28-8.67-10.59-11.08-30.29-12.63-40.53.27-14.85,18.72,7.83,38.88,18.77,26.05,5.64-6.78-1-14.2-5-10.83C765.9,200.93,765.63,202,764.42,201.49Z"/><path d="M201.49,835.57c-1.82,3.93-11.2.47-9.38-8.16,2.36-11.61,20.75-12.65,26.65,1.12,5.85,14.07-7.71,30.32-25.8,25.73-22.24-5.76-26.74-36-8.67-48.28-11.08,10.58-12.63,30.29.27,40.53,18.72,14.84,38.88-7.83,26.05-18.77-6.78-5.64-14.2,1-10.83,4.94C200.93,834.1,202,834.37,201.49,835.57Z"/><path d="M835.57,1398.51c3.93,1.82.47,11.2-8.16,9.38-11.61-2.37-12.65-20.75,1.12-26.66,14.07-5.84,30.32,7.72,25.73,25.81-5.76,22.24-36,26.73-48.28,8.67,10.58,11.07,30.29,12.62,40.53-.27,14.84-18.73-7.83-38.89-18.77-26-5.64,6.78,1,14.2,4.94,10.83C834.1,1399.07,834.37,1398,835.57,1398.51Z"/><path d="M895.3,256.5c-.48-.32-.22-1,0-1.28,7.2-22.91-31.3-20.29-24.68,3.94,3.87,14.17,25.06,19.8,37.73,5.37,13.2-14.85,5.17-39-16.21-43.88C870,215.64,854,231.82,852.24,247c.18-.37.93-1.56,1.06-1.94,8.83-26.15,48.88-23.79,50.73-.78.35,5.37-2.33,12-8.08,12.57A1,1,0,0,1,895.3,256.5Z"/><path d="M256.5,704.7c-.32.48-1,.22-1.28,0-22.91-7.21-20.29,31.3,3.94,24.68,14.17-3.87,19.8-25.07,5.37-37.73-14.85-13.2-39-5.18-43.88,16.2-5,22.1,11.17,38.08,26.34,39.88-.37-.19-1.56-.94-1.94-1.06-26.15-8.83-23.79-48.88-.78-50.74,5.37-.34,12,2.34,12.57,8.09A1,1,0,0,1,256.5,704.7Z"/><path d="M704.7,1343.5c.48.32.22,1,0,1.28-7.21,22.9,31.3,20.29,24.68-4-3.87-14.16-25.07-19.8-37.73-5.36-13.2,14.85-5.18,39,16.2,43.87,22.1,5,38.08-11.17,39.88-26.34-.19.37-.94,1.56-1.06,2-8.83,26.15-48.88,23.79-50.74.77-.34-5.37,2.34-12,8.09-12.56A1,1,0,0,1,704.7,1343.5Z"/><path d="M1343.5,895.3c.32-.48,1-.22,1.28,0,22.9,7.2,20.29-31.3-4-24.68-14.16,3.87-19.8,25.06-5.36,37.73,14.85,13.2,39,5.17,43.87-16.21,5-22.09-11.17-38.07-26.34-39.87.37.18,1.56.93,2,1.06,26.15,8.83,23.79,48.88.77,50.73-5.37.35-12-2.33-12.56-8.08A1,1,0,0,1,1343.5,895.3Z"/><path d="M1343.5,704.7c.32.48,1,.22,1.28,0,22.9-7.21,20.29,31.3-4,24.68-14.16-3.87-19.8-25.07-5.36-37.73,14.85-13.2,39-5.18,43.87,16.2,5,22.1-11.17,38.08-26.34,39.88.37-.19,1.56-.94,2-1.06,26.15-8.83,23.79-48.88.77-50.74-5.37-.34-12,2.34-12.56,8.09A1,1,0,0,0,1343.5,704.7Z"/><path d="M704.7,256.5c.48-.32.22-1,0-1.28-7.21-22.91,31.3-20.29,24.68,3.94-3.87,14.17-25.07,19.8-37.73,5.37-13.2-14.85-5.18-39,16.2-43.88,22.1-5,38.08,11.17,39.88,26.34-.19-.37-.94-1.56-1.06-1.94-8.83-26.15-48.88-23.79-50.74-.78-.34,5.37,2.34,12,8.09,12.57A1,1,0,0,0,704.7,256.5Z"/><path d="M256.5,895.3c-.32-.48-1-.22-1.28,0-22.91,7.2-20.29-31.3,3.94-24.68,14.17,3.87,19.8,25.06,5.37,37.73-14.85,13.2-39,5.17-43.88-16.21C215.64,870,231.82,854,247,852.24c-.37.18-1.56.93-1.94,1.06-26.15,8.83-23.79,48.88-.78,50.73,5.37.35,12-2.33,12.57-8.08A1,1,0,0,0,256.5,895.3Z"/><path d="M895.3,1343.5c-.48.32-.22,1,0,1.28,7.2,22.9-31.3,20.29-24.68-4,3.87-14.16,25.06-19.8,37.73-5.36,13.2,14.85,5.17,39-16.21,43.87-22.09,5-38.07-11.17-39.87-26.34.18.37.93,1.56,1.06,2,8.83,26.15,48.88,23.79,50.73.77.35-5.37-2.33-12-8.08-12.56A1,1,0,0,0,895.3,1343.5Z"/><path d="M1191.82,36.28c-3.67,2.23-9.61-5.78-3.31-12,8.46-8.43,24.28,1,21.6,15.65-2.9,15-23.17,21-35.72,7.22-16.15-18-1.6-46.77,24.36-45.84-22.46,1.61-31.81,20.19-27.07,34.74,7.41,22.73,36.73,14.93,32.08-1.27-2.55-8.46-12.36-7-11.76-1.86C1192.16,34.67,1192.9,35.52,1191.82,36.28Z"/><path d="M36.28,408.18c2.23,3.66-5.78,9.6-12,3.31-8.43-8.46,1-24.28,15.65-21.61,15,2.91,21,23.17,7.22,35.72-18,16.16-46.77,1.61-45.84-24.36,1.61,22.47,20.19,31.81,34.74,27.08,22.73-7.42,14.93-36.73-1.27-32.08-8.46,2.55-7,12.36-1.86,11.76C34.67,407.84,35.52,407.1,36.28,408.18Z"/><path d="M408.18,1563.72c3.66-2.23,9.6,5.77,3.31,12-8.46,8.44-24.28-1-21.61-15.65,2.91-15,23.17-21,35.72-7.21,16.16,18,1.61,46.76-24.36,45.84,22.47-1.61,31.81-20.2,27.08-34.74-7.42-22.73-36.73-14.94-32.08,1.27,2.55,8.46,12.36,7,11.76,1.86C407.84,1565.33,407.1,1564.48,408.18,1563.72Z"/><path d="M1563.72,1191.82c-2.23-3.67,5.77-9.61,12-3.31,8.44,8.46-1,24.28-15.65,21.6-15-2.9-21-23.17-7.21-35.72,18-16.15,46.76-1.6,45.84,24.36-1.61-22.46-20.2-31.81-34.74-27.07-22.73,7.41-14.94,36.73,1.27,32.08,8.46-2.55,7-12.36,1.86-11.76C1565.33,1192.16,1564.48,1192.9,1563.72,1191.82Z"/><path d="M1563.72,408.18c-2.23,3.66,5.77,9.6,12,3.31,8.44-8.46-1-24.28-15.65-21.61-15,2.91-21,23.17-7.21,35.72,18,16.16,46.76,1.61,45.84-24.36-1.61,22.47-20.2,31.81-34.74,27.08-22.73-7.42-14.94-36.73,1.27-32.08,8.46,2.55,7,12.36,1.86,11.76C1565.33,407.84,1564.48,407.1,1563.72,408.18Z"/><path d="M408.18,36.28c3.66,2.23,9.6-5.78,3.31-12-8.46-8.43-24.28,1-21.61,15.65,2.91,15,23.17,21,35.72,7.22,16.16-18,1.61-46.77-24.36-45.84,22.47,1.61,31.81,20.19,27.08,34.74C420.9,58.78,391.59,51,396.24,34.78c2.55-8.46,12.36-7,11.76-1.86C407.84,34.67,407.1,35.52,408.18,36.28Z"/><path d="M36.28,1191.82c2.23-3.67-5.78-9.61-12-3.31-8.43,8.46,1,24.28,15.65,21.6,15-2.9,21-23.17,7.22-35.72-18-16.15-46.77-1.6-45.84,24.36,1.61-22.46,20.19-31.81,34.74-27.07,22.73,7.41,14.93,36.73-1.27,32.08-8.46-2.55-7-12.36-1.86-11.76C34.67,1192.16,35.52,1192.9,36.28,1191.82Z"/><path d="M1191.82,1563.72c-3.67-2.23-9.61,5.77-3.31,12,8.46,8.44,24.28-1,21.6-15.65-2.9-15-23.17-21-35.72-7.21-16.15,18-1.6,46.76,24.36,45.84-22.46-1.61-31.81-20.2-27.07-34.74,7.41-22.73,36.73-14.94,32.08,1.27-2.55,8.46-12.36,7-11.76,1.86C1192.16,1565.33,1192.9,1564.48,1191.82,1563.72Z"/><path d="M800,189.63c30-26.83,64-42.17,103.33-27.44h0l2.4-6.4a92.35,92.35,0,0,0-32.81-6.21h0c-27.06.07-51.17,12.62-72.92,31-21.75-18.39-45.87-30.94-72.92-31h0a92.31,92.31,0,0,0-32.81,6.21l2.4,6.4h0C736,147.46,770.05,162.8,800,189.63Z"/><path d="M1410.37,800c26.82,30,42.17,64,27.44,103.33h0l6.4,2.4a92.35,92.35,0,0,0,6.21-32.81h0c-.07-27.06-12.62-51.17-31-72.92,18.39-21.75,30.94-45.87,31-72.92h0a92.31,92.31,0,0,0-6.21-32.81l-6.4,2.4h0C1452.54,736,1437.19,770.05,1410.37,800Z"/><path d="M800,1410.37c-30,26.82-64,42.17-103.33,27.44h0l-2.4,6.4a92.35,92.35,0,0,0,32.81,6.21h0c27-.07,51.17-12.62,72.92-31,21.75,18.39,45.87,30.94,72.92,31h0a92.35,92.35,0,0,0,32.81-6.21l-2.4-6.4h0C864,1452.54,830,1437.19,800,1410.37Z"/><path d="M189.63,800c-26.83-30-42.17-64-27.44-103.33h0l-6.4-2.4a92.35,92.35,0,0,0-6.21,32.81h0c.07,27,12.62,51.17,31,72.92-18.39,21.75-30.94,45.87-31,72.92h0a92.35,92.35,0,0,0,6.21,32.81l6.4-2.4h0C147.46,864,162.8,830,189.63,800Z"/></svg>