<svg id="Layer_1" data-name="Layer 1" xmlns="http://www.w3.org/2000/svg" width="959.85" height="99.76" viewBox="0 0 959.85 99.76"><g id="branches"><path d="M.12,64.71s60,4.73,128.06-8.24,176.09-9,203.1-22.83" fill="none" stroke="#000" stroke-miterlimit="10" stroke-width="3"/><path d="M128.18,56.47c39,9,180.09,1.13,180.09,1.13s77-3.38,146.08,12.12,57,29,57,29" fill="none" stroke="#000" stroke-miterlimit="10" stroke-width="3"/><path d="M781.51,1.5s-93,6.76-170.08,31c0,0-36.62,13.81-129.87,15.51,0,0-136.58-5.15-177.95,9.83" fill="none" stroke="#000" stroke-miterlimit="10" stroke-width="3"/><path d="M862.55,89.74s-87-2-191.09-17.76c0,0-119.66-11-189.9-24,0,0,6.8-36.66,74.84-43.7" fill="none" stroke="#000" stroke-miterlimit="10" stroke-width="3"/><path d="M847.54,40.69S791.52,70.85,671.46,72" fill="none" stroke="#000" stroke-miterlimit="10" stroke-width="3"/><path d="M959.6,40.69S786.71,11.7,626,28.17" fill="none" stroke="#000" stroke-miterlimit="10" stroke-width="3"/><path d="M295.27,87.49s-72.06.17-97.06-26.7" fill="none" stroke="#000" stroke-miterlimit="10" stroke-width="3"/></g></svg>